# xmcd
#
# Track frame offsets: 
#        182
#        16847
#        28450
#        39435
#        54755
#        70227
#        83937
#        98415
#        112347
#        124827
#
# Disc length: 1850 seconds
#
# Revision: 2
# Processed by: cddbd v1.4PL0 Copyright (c) Steve Scherf et al.
# Submitted via: ExactAudioCopy v0.90b3
#
DISCID=7e07380a
DTITLE=Eddy Raven - Best Of Eddy Raven
DYEAR=1900
DGENRE=Country
TTITLE0=Joe Knows How To Live
TTITLE1=I'm Gonna Get You
TTITLE2=I Got Mexico
TTITLE3=Shine, Shine, Shine
TTITLE4=You Should Have Been Gone By Now
TTITLE5=Right Hand Man
TTITLE6=I Wanna Hear It From You
TTITLE7=Heart On The Line (Operator Operator)
TTITLE8=I Could Use Another You
TTITLE9=I Should've Called
EXTD=
EXTT0=
EXTT1=
EXTT2=
EXTT3=
EXTT4=
EXTT5=
EXTT6=
EXTT7=
EXTT8=
EXTT9=
PLAYORDER=
